<?xml version="1.0" encoding="utf-8"?>
<!-- Generator: Adobe Illustrator 24.1.3, SVG Export Plug-In . SVG Version: 6.00 Build 0)  -->
<svg version="1.1" id="Capa_1" xmlns="http://www.w3.org/2000/svg" xmlns:xlink="http://www.w3.org/1999/xlink" x="0px" y="0px"
	 viewBox="0 0 262.56 91.3" style="enable-background:new 0 0 262.56 91.3;" xml:space="preserve">
<style type="text/css">
	.st0{fill:#1DC27C;}
	.st1{fill:#343434;}
</style>
<g>
	<path class="st0" d="M4.96,5.6H18v24.71h0.28c3.31-5.33,9-7.9,13.87-7.9c13.87,0,17.36,7.81,17.36,19.57v29.21H36.47V44.37
		c0-7.81-2.3-11.67-8.36-11.67c-7.07,0-10.1,3.95-10.1,13.59v24.89H4.96V5.6z"/>
	<path class="st1" d="M70.18,50.61c0.37,8.27,4.41,12.03,11.67,12.03c5.24,0,9.46-3.21,10.29-6.15h11.48
		C99.94,67.7,92.13,72.47,81.38,72.47c-14.97,0-24.25-10.29-24.25-24.99c0-14.24,9.83-25.08,24.25-25.08
		c16.17,0,23.97,13.59,23.06,28.2H70.18z M91.4,42.34c-1.19-6.61-4.04-10.1-10.38-10.1c-8.27,0-10.66,6.43-10.84,10.1H91.4z"/>
	<path class="st1" d="M112.15,23.7h12.4v6.06h0.18c3.12-5.05,8.27-7.35,14.15-7.35c14.88,0,21.59,12.03,21.59,25.54
		c0,12.68-6.98,24.53-20.85,24.53c-5.7,0-11.11-2.48-14.24-7.17h-0.18v22.6h-13.04V23.7z M147.43,47.58
		c0-7.53-3.03-15.34-11.39-15.34c-8.54,0-11.3,7.62-11.3,15.34c0,7.72,2.94,15.06,11.39,15.06
		C144.67,62.64,147.43,55.3,147.43,47.58z"/>
	<path class="st1" d="M181.69,16.35h-13.04V5.6h13.04V16.35z M168.64,23.7h13.04v47.49h-13.04V23.7z"/>
	<path class="st1" d="M224.31,40.42c-0.83-5.33-4.23-8.18-9.64-8.18c-8.36,0-11.12,8.45-11.12,15.43c0,6.8,2.66,14.97,10.84,14.97
		c6.06,0,9.55-3.86,10.38-9.65h12.58c-1.65,12.58-10.38,19.47-22.87,19.47c-14.33,0-23.98-10.1-23.98-24.34
		c0-14.79,8.82-25.72,24.25-25.72c11.21,0,21.5,5.88,22.32,18H224.31z"/>
	<path class="st1" d="M245.25,57.04h14.42v14.15h-14.42V57.04z"/>
</g>
</svg>